<svg width="120" height="144" fill="none" xmlns="http://www.w3.org/2000/svg"><ellipse cx="1.224" cy="10.623" rx="1.224" ry="1.18" fill="#3758F9" fill-opacity=".75"/><ellipse cx="1.224" cy="20.066" rx="1.224" ry="1.18" fill="#3758F9" fill-opacity=".75"/><ellipse cx="1.224" cy="29.508" rx="1.224" ry="1.18" fill="#3758F9" fill-opacity=".75"/><ellipse cx="1.224" cy="38.951" rx="1.224" ry="1.18" fill="#3758F9" fill-opacity=".75"/><ellipse cx="1.224" cy="48.393" rx="1.224" ry="1.18" fill="#3758F9" fill-opacity=".75"/><ellipse cx="1.224" cy="57.836" rx="1.224" ry="1.18" fill="#3758F9" fill-opacity=".75"/><ellipse cx="1.224" cy="86.164" rx="1.224" ry="1.18" fill="#3758F9" fill-opacity=".75"/><ellipse cx="1.224" cy="67.279" rx="1.224" ry="1.18" fill="#3758F9" fill-opacity=".75"/><ellipse cx="1.224" cy="95.607" rx="1.224" ry="1.18" fill="#3758F9" fill-opacity=".75"/><ellipse cx="1.224" cy="105.049" rx="1.224" ry="1.18" fill="#3758F9" fill-opacity=".75"/><ellipse cx="1.224" cy="76.721" rx="1.224" ry="1.18" fill="#3758F9" fill-opacity=".75"/><ellipse cx="1.224" cy="114.492" rx="1.224" ry="1.18" fill="#3758F9" fill-opacity=".75"/><ellipse cx="30.612" cy="1.18" rx="1.224" ry="1.18" fill="#3758F9" fill-opacity=".75"/><ellipse cx="30.612" cy="10.623" rx="1.224" ry="1.18" fill="#3758F9" fill-opacity=".75"/><ellipse cx="30.612" cy="20.066" rx="1.224" ry="1.18" fill="#3758F9" fill-opacity=".75"/><ellipse cx="30.612" cy="29.508" rx="1.224" ry="1.18" fill="#3758F9" fill-opacity=".75"/><ellipse cx="30.612" cy="38.951" rx="1.224" ry="1.18" fill="#3758F9" fill-opacity=".75"/><ellipse cx="30.612" cy="48.393" rx="1.224" ry="1.18" fill="#3758F9" fill-opacity=".75"/><ellipse cx="30.612" cy="57.836" rx="1.224" ry="1.18" fill="#3758F9" fill-opacity=".75"/><ellipse cx="30.612" cy="86.164" rx="1.224" ry="1.18" fill="#3758F9" fill-opacity=".75"/><ellipse cx="30.612" cy="67.279" rx="1.224" ry="1.18" fill="#3758F9" fill-opacity=".75"/><ellipse cx="30.612" cy="95.607" rx="1.224" ry="1.18" fill="#3758F9" fill-opacity=".75"/><ellipse cx="30.612" cy="105.049" rx="1.224" ry="1.18" fill="#3758F9" fill-opacity=".75"/><ellipse cx="30.612" cy="76.721" rx="1.224" ry="1.18" fill="#3758F9" fill-opacity=".75"/><ellipse cx="30.612" cy="114.492" rx="1.224" ry="1.18" fill="#3758F9" fill-opacity=".75"/><ellipse cx="30.612" cy="123.934" rx="1.224" ry="1.18" fill="#3758F9" fill-opacity=".75"/><ellipse cx="30.612" cy="133.377" rx="1.224" ry="1.18" fill="#3758F9" fill-opacity=".75"/><ellipse cx="30.612" cy="142.82" rx="1.224" ry="1.18" fill="#3758F9" fill-opacity=".75"/><ellipse cx="11.02" cy="1.18" rx="1.224" ry="1.18" fill="#3758F9" fill-opacity=".75"/><ellipse cx="11.02" cy="10.623" rx="1.224" ry="1.18" fill="#3758F9" fill-opacity=".75"/><ellipse cx="11.02" cy="20.066" rx="1.224" ry="1.18" fill="#3758F9" fill-opacity=".75"/><ellipse cx="11.02" cy="29.508" rx="1.224" ry="1.18" fill="#3758F9" fill-opacity=".75"/><ellipse cx="11.02" cy="38.951" rx="1.224" ry="1.18" fill="#3758F9" fill-opacity=".75"/><ellipse cx="11.02" cy="48.393" rx="1.224" ry="1.18" fill="#3758F9" fill-opacity=".75"/><ellipse cx="11.02" cy="57.836" rx="1.224" ry="1.18" fill="#3758F9" fill-opacity=".75"/><ellipse cx="11.02" cy="86.164" rx="1.224" ry="1.18" fill="#3758F9" fill-opacity=".75"/><ellipse cx="11.02" cy="67.279" rx="1.224" ry="1.18" fill="#3758F9" fill-opacity=".75"/><ellipse cx="11.02" cy="95.607" rx="1.224" ry="1.18" fill="#3758F9" fill-opacity=".75"/><ellipse cx="11.02" cy="105.049" rx="1.224" ry="1.18" fill="#3758F9" fill-opacity=".75"/><ellipse cx="11.02" cy="76.721" rx="1.224" ry="1.18" fill="#3758F9" fill-opacity=".75"/><ellipse cx="11.02" cy="114.492" rx="1.224" ry="1.18" fill="#3758F9" fill-opacity=".75"/><ellipse cx="11.02" cy="123.934" rx="1.224" ry="1.18" fill="#3758F9" fill-opacity=".75"/><ellipse cx="40.408" cy="1.18" rx="1.224" ry="1.18" fill="#3758F9" fill-opacity=".75"/><ellipse cx="40.408" cy="10.623" rx="1.224" ry="1.18" fill="#3758F9" fill-opacity=".75"/><ellipse cx="40.408" cy="20.066" rx="1.224" ry="1.18" fill="#3758F9" fill-opacity=".75"/><ellipse cx="40.408" cy="29.508" rx="1.224" ry="1.18" fill="#3758F9" fill-opacity=".75"/><ellipse cx="40.408" cy="38.951" rx="1.224" ry="1.18" fill="#3758F9" fill-opacity=".75"/><ellipse cx="40.408" cy="48.393" rx="1.224" ry="1.18" fill="#3758F9" fill-opacity=".75"/><ellipse cx="40.408" cy="57.836" rx="1.224" ry="1.18" fill="#3758F9" fill-opacity=".75"/><ellipse cx="40.408" cy="86.164" rx="1.224" ry="1.18" fill="#3758F9" fill-opacity=".75"/><ellipse cx="40.408" cy="67.279" rx="1.224" ry="1.18" fill="#3758F9" fill-opacity=".75"/><ellipse cx="40.408" cy="95.607" rx="1.224" ry="1.18" fill="#3758F9" fill-opacity=".75"/><ellipse cx="40.408" cy="105.049" rx="1.224" ry="1.18" fill="#3758F9" fill-opacity=".75"/><ellipse cx="40.408" cy="76.721" rx="1.224" ry="1.18" fill="#3758F9" fill-opacity=".75"/><ellipse cx="40.408" cy="114.492" rx="1.224" ry="1.18" fill="#3758F9" fill-opacity=".75"/><ellipse cx="40.408" cy="123.934" rx="1.224" ry="1.18" fill="#3758F9" fill-opacity=".75"/><ellipse cx="40.408" cy="133.377" rx="1.224" ry="1.18" fill="#3758F9" fill-opacity=".75"/><ellipse cx="40.408" cy="142.82" rx="1.224" ry="1.18" fill="#3758F9" fill-opacity=".75"/><ellipse cx="20.816" cy="1.18" rx="1.224" ry="1.18" fill="#3758F9" fill-opacity=".75"/><ellipse cx="20.816" cy="10.623" rx="1.224" ry="1.18" fill="#3758F9" fill-opacity=".75"/><ellipse cx="20.816" cy="20.066" rx="1.224" ry="1.18" fill="#3758F9" fill-opacity=".75"/><ellipse cx="20.816" cy="29.508" rx="1.224" ry="1.18" fill="#3758F9" fill-opacity=".75"/><ellipse cx="20.816" cy="38.951" rx="1.224" ry="1.18" fill="#3758F9" fill-opacity=".75"/><ellipse cx="20.816" cy="48.393" rx="1.224" ry="1.18" fill="#3758F9" fill-opacity=".75"/><ellipse cx="20.816" cy="57.836" rx="1.224" ry="1.18" fill="#3758F9" fill-opacity=".75"/><ellipse cx="20.816" cy="86.164" rx="1.224" ry="1.18" fill="#3758F9" fill-opacity=".75"/><ellipse cx="20.816" cy="67.279" rx="1.224" ry="1.18" fill="#3758F9" fill-opacity=".75"/><ellipse cx="20.816" cy="95.607" rx="1.224" ry="1.18" fill="#3758F9" fill-opacity=".75"/><ellipse cx="20.816" cy="105.049" rx="1.224" ry="1.18" fill="#3758F9" fill-opacity=".75"/><ellipse cx="20.816" cy="76.721" rx="1.224" ry="1.18" fill="#3758F9" fill-opacity=".75"/><ellipse cx="20.816" cy="114.492" rx="1.224" ry="1.18" fill="#3758F9" fill-opacity=".75"/><ellipse cx="20.816" cy="123.934" rx="1.224" ry="1.18" fill="#3758F9" fill-opacity=".75"/><ellipse cx="20.816" cy="133.377" rx="1.224" ry="1.18" fill="#3758F9" fill-opacity=".75"/><ellipse cx="50.204" cy="1.18" rx="1.224" ry="1.18" fill="#3758F9" fill-opacity=".75"/><ellipse cx="50.204" cy="10.623" rx="1.224" ry="1.18" fill="#3758F9" fill-opacity=".75"/><ellipse cx="50.204" cy="20.066" rx="1.224" ry="1.18" fill="#3758F9" fill-opacity=".75"/><ellipse cx="50.204" cy="29.508" rx="1.224" ry="1.18" fill="#3758F9" fill-opacity=".75"/><ellipse cx="50.204" cy="38.951" rx="1.224" ry="1.18" fill="#3758F9" fill-opacity=".75"/><ellipse cx="50.204" cy="48.393" rx="1.224" ry="1.18" fill="#3758F9" fill-opacity=".75"/><ellipse cx="50.204" cy="57.836" rx="1.224" ry="1.18" fill="#3758F9" fill-opacity=".75"/><ellipse cx="50.204" cy="86.164" rx="1.224" ry="1.18" fill="#3758F9" fill-opacity=".75"/><ellipse cx="50.204" cy="67.279" rx="1.224" ry="1.18" fill="#3758F9" fill-opacity=".75"/><ellipse cx="50.204" cy="95.607" rx="1.224" ry="1.18" fill="#3758F9" fill-opacity=".75"/><ellipse cx="50.204" cy="105.049" rx="1.224" ry="1.18" fill="#3758F9" fill-opacity=".75"/><ellipse cx="50.204" cy="76.721" rx="1.224" ry="1.18" fill="#3758F9" fill-opacity=".75"/><ellipse cx="50.204" cy="114.492" rx="1.224" ry="1.18" fill="#3758F9" fill-opacity=".75"/><ellipse cx="50.204" cy="123.934" rx="1.224" ry="1.18" fill="#3758F9" fill-opacity=".75"/><ellipse cx="50.204" cy="133.377" rx="1.224" ry="1.18" fill="#3758F9" fill-opacity=".75"/><ellipse cx="50.204" cy="142.82" rx="1.224" ry="1.18" fill="#3758F9" fill-opacity=".75"/><ellipse cx="60" cy="1.18" rx="1.224" ry="1.18" fill="#3758F9" fill-opacity=".75"/><ellipse cx="69.796" cy="1.18" rx="1.224" ry="1.18" fill="#3758F9" fill-opacity=".75"/><ellipse cx="79.592" cy="1.18" rx="1.224" ry="1.18" fill="#3758F9" fill-opacity=".75"/><ellipse cx="89.388" cy="1.18" rx="1.224" ry="1.18" fill="#3758F9" fill-opacity=".75"/><ellipse cx="60" cy="10.623" rx="1.224" ry="1.18" fill="#3758F9" fill-opacity=".75"/><ellipse cx="69.796" cy="10.623" rx="1.224" ry="1.18" fill="#3758F9" fill-opacity=".75"/><ellipse cx="79.592" cy="10.623" rx="1.224" ry="1.18" fill="#3758F9" fill-opacity=".75"/><ellipse cx="89.388" cy="10.623" rx="1.224" ry="1.18" fill="#3758F9" fill-opacity=".75"/><ellipse cx="99.184" cy="10.623" rx="1.224" ry="1.18" fill="#3758F9" fill-opacity=".75"/><ellipse cx="60" cy="20.066" rx="1.224" ry="1.18" fill="#3758F9" fill-opacity=".75"/><ellipse cx="69.796" cy="20.066" rx="1.224" ry="1.18" fill="#3758F9" fill-opacity=".75"/><ellipse cx="79.592" cy="20.066" rx="1.224" ry="1.18" fill="#3758F9" fill-opacity=".75"/><ellipse cx="89.388" cy="20.066" rx="1.224" ry="1.18" fill="#3758F9" fill-opacity=".75"/><ellipse cx="99.184" cy="20.066" rx="1.224" ry="1.18" fill="#3758F9" fill-opacity=".75"/><ellipse cx="108.98" cy="20.066" rx="1.224" ry="1.18" fill="#3758F9" fill-opacity=".75"/><ellipse cx="60" cy="29.508" rx="1.224" ry="1.18" fill="#3758F9" fill-opacity=".75"/><ellipse cx="69.796" cy="29.508" rx="1.224" ry="1.18" fill="#3758F9" fill-opacity=".75"/><ellipse cx="79.592" cy="29.508" rx="1.224" ry="1.18" fill="#3758F9" fill-opacity=".75"/><ellipse cx="89.388" cy="29.508" rx="1.224" ry="1.18" fill="#3758F9" fill-opacity=".75"/><ellipse cx="99.184" cy="29.508" rx="1.224" ry="1.18" fill="#3758F9" fill-opacity=".75"/><ellipse cx="108.98" cy="29.508" rx="1.224" ry="1.18" fill="#3758F9" fill-opacity=".75"/><ellipse cx="118.776" cy="29.508" rx="1.224" ry="1.18" fill="#3758F9" fill-opacity=".75"/><ellipse cx="60" cy="38.951" rx="1.224" ry="1.18" fill="#3758F9" fill-opacity=".75"/><ellipse cx="69.796" cy="38.951" rx="1.224" ry="1.18" fill="#3758F9" fill-opacity=".75"/><ellipse cx="79.592" cy="38.951" rx="1.224" ry="1.18" fill="#3758F9" fill-opacity=".75"/><ellipse cx="89.388" cy="38.951" rx="1.224" ry="1.18" fill="#3758F9" fill-opacity=".75"/><ellipse cx="99.184" cy="38.951" rx="1.224" ry="1.18" fill="#3758F9" fill-opacity=".75"/><ellipse cx="108.98" cy="38.951" rx="1.224" ry="1.18" fill="#3758F9" fill-opacity=".75"/><ellipse cx="118.776" cy="38.951" rx="1.224" ry="1.18" fill="#3758F9" fill-opacity=".75"/><ellipse cx="60" cy="48.393" rx="1.224" ry="1.18" fill="#3758F9" fill-opacity=".75"/><ellipse cx="69.796" cy="48.393" rx="1.224" ry="1.18" fill="#3758F9" fill-opacity=".75"/><ellipse cx="79.592" cy="48.393" rx="1.224" ry="1.18" fill="#3758F9" fill-opacity=".75"/><ellipse cx="89.388" cy="48.393" rx="1.224" ry="1.18" fill="#3758F9" fill-opacity=".75"/><ellipse cx="99.184" cy="48.393" rx="1.224" ry="1.18" fill="#3758F9" fill-opacity=".75"/><ellipse cx="108.98" cy="48.393" rx="1.224" ry="1.18" fill="#3758F9" fill-opacity=".75"/><ellipse cx="118.776" cy="48.393" rx="1.224" ry="1.18" fill="#3758F9" fill-opacity=".75"/><ellipse cx="60" cy="57.836" rx="1.224" ry="1.18" fill="#3758F9" fill-opacity=".75"/><ellipse cx="69.796" cy="57.836" rx="1.224" ry="1.18" fill="#3758F9" fill-opacity=".75"/><ellipse cx="79.592" cy="57.836" rx="1.224" ry="1.18" fill="#3758F9" fill-opacity=".75"/><ellipse cx="89.388" cy="57.836" rx="1.224" ry="1.18" fill="#3758F9" fill-opacity=".75"/><ellipse cx="99.184" cy="57.836" rx="1.224" ry="1.18" fill="#3758F9" fill-opacity=".75"/><ellipse cx="108.98" cy="57.836" rx="1.224" ry="1.18" fill="#3758F9" fill-opacity=".75"/><ellipse cx="118.776" cy="57.836" rx="1.224" ry="1.18" fill="#3758F9" fill-opacity=".75"/><ellipse cx="60" cy="86.164" rx="1.224" ry="1.18" fill="#3758F9" fill-opacity=".75"/><ellipse cx="60" cy="67.279" rx="1.224" ry="1.18" fill="#3758F9" fill-opacity=".75"/><ellipse cx="60" cy="95.607" rx="1.224" ry="1.18" fill="#3758F9" fill-opacity=".75"/><ellipse cx="60" cy="105.049" rx="1.224" ry="1.18" fill="#3758F9" fill-opacity=".75"/><ellipse cx="60" cy="76.721" rx="1.224" ry="1.18" fill="#3758F9" fill-opacity=".75"/><ellipse cx="60" cy="114.492" rx="1.224" ry="1.18" fill="#3758F9" fill-opacity=".75"/><ellipse cx="60" cy="123.934" rx="1.224" ry="1.18" fill="#3758F9" fill-opacity=".75"/><ellipse cx="60" cy="133.377" rx="1.224" ry="1.18" fill="#3758F9" fill-opacity=".75"/><ellipse cx="60" cy="142.82" rx="1.224" ry="1.18" fill="#3758F9" fill-opacity=".75"/><ellipse cx="69.796" cy="86.164" rx="1.224" ry="1.18" fill="#3758F9" fill-opacity=".75"/><ellipse cx="69.796" cy="67.279" rx="1.224" ry="1.18" fill="#3758F9" fill-opacity=".75"/><ellipse cx="69.796" cy="95.607" rx="1.224" ry="1.18" fill="#3758F9" fill-opacity=".75"/><ellipse cx="69.796" cy="105.049" rx="1.224" ry="1.18" fill="#3758F9" fill-opacity=".75"/><ellipse cx="69.796" cy="76.721" rx="1.224" ry="1.18" fill="#3758F9" fill-opacity=".75"/><ellipse cx="69.796" cy="114.492" rx="1.224" ry="1.18" fill="#3758F9" fill-opacity=".75"/><ellipse cx="69.796" cy="123.934" rx="1.224" ry="1.18" fill="#3758F9" fill-opacity=".75"/><ellipse cx="69.796" cy="133.377" rx="1.224" ry="1.18" fill="#3758F9" fill-opacity=".75"/><ellipse cx="69.796" cy="142.82" rx="1.224" ry="1.18" fill="#3758F9" fill-opacity=".75"/><ellipse cx="79.592" cy="86.164" rx="1.224" ry="1.18" fill="#3758F9" fill-opacity=".75"/><ellipse cx="79.592" cy="67.279" rx="1.224" ry="1.18" fill="#3758F9" fill-opacity=".75"/><ellipse cx="79.592" cy="95.607" rx="1.224" ry="1.18" fill="#3758F9" fill-opacity=".75"/><ellipse cx="79.592" cy="105.049" rx="1.224" ry="1.18" fill="#3758F9" fill-opacity=".75"/><ellipse cx="79.592" cy="76.721" rx="1.224" ry="1.18" fill="#3758F9" fill-opacity=".75"/><ellipse cx="79.592" cy="114.492" rx="1.224" ry="1.18" fill="#3758F9" fill-opacity=".75"/><ellipse cx="79.592" cy="123.934" rx="1.224" ry="1.18" fill="#3758F9" fill-opacity=".75"/><ellipse cx="79.592" cy="133.377" rx="1.224" ry="1.18" fill="#3758F9" fill-opacity=".75"/><ellipse cx="79.592" cy="142.82" rx="1.224" ry="1.18" fill="#3758F9" fill-opacity=".75"/><ellipse cx="89.388" cy="86.164" rx="1.224" ry="1.18" fill="#3758F9" fill-opacity=".75"/><ellipse cx="89.388" cy="67.279" rx="1.224" ry="1.18" fill="#3758F9" fill-opacity=".75"/><ellipse cx="89.388" cy="95.607" rx="1.224" ry="1.18" fill="#3758F9" fill-opacity=".75"/><ellipse cx="89.388" cy="105.049" rx="1.224" ry="1.18" fill="#3758F9" fill-opacity=".75"/><ellipse cx="89.388" cy="76.721" rx="1.224" ry="1.18" fill="#3758F9" fill-opacity=".75"/><ellipse cx="89.388" cy="114.492" rx="1.224" ry="1.18" fill="#3758F9" fill-opacity=".75"/><ellipse cx="89.388" cy="123.934" rx="1.224" ry="1.18" fill="#3758F9" fill-opacity=".75"/><ellipse cx="89.388" cy="133.377" rx="1.224" ry="1.18" fill="#3758F9" fill-opacity=".75"/><ellipse cx="89.388" cy="142.82" rx="1.224" ry="1.18" fill="#3758F9" fill-opacity=".75"/><ellipse cx="99.184" cy="86.164" rx="1.224" ry="1.18" fill="#3758F9" fill-opacity=".75"/><ellipse cx="99.184" cy="67.279" rx="1.224" ry="1.18" fill="#3758F9" fill-opacity=".75"/><ellipse cx="99.184" cy="95.607" rx="1.224" ry="1.18" fill="#3758F9" fill-opacity=".75"/><ellipse cx="99.184" cy="105.049" rx="1.224" ry="1.18" fill="#3758F9" fill-opacity=".75"/><ellipse cx="99.184" cy="76.721" rx="1.224" ry="1.18" fill="#3758F9" fill-opacity=".75"/><ellipse cx="99.184" cy="114.492" rx="1.224" ry="1.18" fill="#3758F9" fill-opacity=".75"/><ellipse cx="99.184" cy="123.934" rx="1.224" ry="1.18" fill="#3758F9" fill-opacity=".75"/><ellipse cx="99.184" cy="133.377" rx="1.224" ry="1.18" fill="#3758F9" fill-opacity=".75"/><ellipse cx="99.184" cy="142.82" rx="1.224" ry="1.18" fill="#3758F9" fill-opacity=".75"/><ellipse cx="108.98" cy="86.164" rx="1.224" ry="1.18" fill="#3758F9" fill-opacity=".75"/><ellipse cx="108.98" cy="67.279" rx="1.224" ry="1.18" fill="#3758F9" fill-opacity=".75"/><ellipse cx="108.98" cy="95.607" rx="1.224" ry="1.18" fill="#3758F9" fill-opacity=".75"/><ellipse cx="108.98" cy="105.049" rx="1.224" ry="1.18" fill="#3758F9" fill-opacity=".75"/><ellipse cx="108.98" cy="76.721" rx="1.224" ry="1.18" fill="#3758F9" fill-opacity=".75"/><ellipse cx="108.98" cy="114.492" rx="1.224" ry="1.18" fill="#3758F9" fill-opacity=".75"/><ellipse cx="108.98" cy="123.934" rx="1.224" ry="1.18" fill="#3758F9" fill-opacity=".75"/><ellipse cx="108.98" cy="133.377" rx="1.224" ry="1.18" fill="#3758F9" fill-opacity=".75"/><ellipse cx="108.98" cy="142.82" rx="1.224" ry="1.18" fill="#3758F9" fill-opacity=".75"/><ellipse cx="118.776" cy="86.164" rx="1.224" ry="1.18" fill="#3758F9" fill-opacity=".75"/><ellipse cx="118.776" cy="67.279" rx="1.224" ry="1.18" fill="#3758F9" fill-opacity=".75"/><ellipse cx="118.776" cy="95.607" rx="1.224" ry="1.18" fill="#3758F9" fill-opacity=".75"/><ellipse cx="118.776" cy="105.049" rx="1.224" ry="1.18" fill="#3758F9" fill-opacity=".75"/><ellipse cx="118.776" cy="76.721" rx="1.224" ry="1.18" fill="#3758F9" fill-opacity=".75"/><ellipse cx="118.776" cy="114.492" rx="1.224" ry="1.18" fill="#3758F9" fill-opacity=".75"/><ellipse cx="118.776" cy="123.934" rx="1.224" ry="1.18" fill="#3758F9" fill-opacity=".75"/><ellipse cx="118.776" cy="133.377" rx="1.224" ry="1.18" fill="#3758F9" fill-opacity=".75"/></svg>