<svg width="836" height="696" fill="none" xmlns="http://www.w3.org/2000/svg"><ellipse cx="418" cy="510" rx="418" ry="186" fill="#FFD338"/><path d="M92.35 194.745L414.003 9.304a8.001 8.001 0 017.992 0L743.65 194.745c5.967 3.44 5.087 12.31-1.439 14.511L420.557 317.74a8.007 8.007 0 01-5.114 0L93.788 209.256c-6.526-2.201-7.406-11.071-1.439-14.511z" fill="#3758F9" stroke="#05114B" stroke-width="16"/><path fill="#fff" d="M140.2 135.199h555.601v276.543H140.2z"/><path d="M140.2 72.561c0-8.836 7.163-16 16-16h523.6c8.837 0 16 7.164 16 16v28.562H140.2V72.561z" fill="#073E55"/><ellipse cx="171.105" cy="78.842" rx="10.07" ry="9.83" fill="#EF4544"/><ellipse cx="200.621" cy="78.842" rx="10.418" ry="9.83" fill="#FBBF23"/><ellipse cx="230.485" cy="78.842" rx="10.418" ry="9.83" fill="#4ADE80"/><path fill="#FFD338" d="M140.2 100.468h555.601V135.2H140.2z"/><rect x="161.035" y="108.987" width="29.169" height="17.038" rx="8" fill="#042A3A" fill-opacity=".3"/><rect x="345.078" y="108.987" width="145.151" height="17.038" rx="8" fill="#042A3A" fill-opacity=".3"/><path d="M140.2 157.48l555.599 1.13M140.2 180.891l555.599 1.129M140.2 204.301l555.599 1.13M140.2 227.711l555.599 1.13M140.2 251.122l555.599 1.13M140.2 274.533l555.599 1.13M140.2 297.943l555.599 1.13M140.2 321.354l555.599 1.129M140.2 344.764l555.599 1.13M140.2 368.175l555.599 1.13M140.2 391.585l555.599 1.13" stroke="#CCD1DD"/><path d="M77 557V215.732c0-5.829 6.033-9.701 11.332-7.273l326.336 149.514c2.115.97 4.548.97 6.664 0l326.336-149.514c5.299-2.428 11.332 1.444 11.332 7.273V557a8 8 0 01-8 8H85a8 8 0 01-8-8z" fill="#F0F6FF" stroke="#05114B" stroke-width="16"/></svg>