<svg width="120" height="144" viewBox="0 0 120 144" fill="none" xmlns="http://www.w3.org/2000/svg">
<ellipse cx="1.22449" cy="10.623" rx="1.22449" ry="1.18033" fill="#3758F9" fill-opacity="0.75"/>
<ellipse cx="1.22449" cy="20.0656" rx="1.22449" ry="1.18033" fill="#3758F9" fill-opacity="0.75"/>
<ellipse cx="1.22449" cy="29.5082" rx="1.22449" ry="1.18033" fill="#3758F9" fill-opacity="0.75"/>
<ellipse cx="1.22449" cy="38.9508" rx="1.22449" ry="1.18031" fill="#3758F9" fill-opacity="0.75"/>
<ellipse cx="1.22449" cy="48.3934" rx="1.22449" ry="1.18034" fill="#3758F9" fill-opacity="0.75"/>
<ellipse cx="1.22449" cy="57.8361" rx="1.22449" ry="1.18033" fill="#3758F9" fill-opacity="0.75"/>
<ellipse cx="1.22449" cy="86.164" rx="1.22449" ry="1.18031" fill="#3758F9" fill-opacity="0.75"/>
<ellipse cx="1.22449" cy="67.2787" rx="1.22449" ry="1.18033" fill="#3758F9" fill-opacity="0.75"/>
<ellipse cx="1.22449" cy="95.6066" rx="1.22449" ry="1.18035" fill="#3758F9" fill-opacity="0.75"/>
<ellipse cx="1.22449" cy="105.049" rx="1.22449" ry="1.18033" fill="#3758F9" fill-opacity="0.75"/>
<ellipse cx="1.22449" cy="76.7213" rx="1.22449" ry="1.18033" fill="#3758F9" fill-opacity="0.75"/>
<ellipse cx="1.22449" cy="114.492" rx="1.22449" ry="1.18031" fill="#3758F9" fill-opacity="0.75"/>
<ellipse cx="30.6122" cy="1.18033" rx="1.22449" ry="1.18033" fill="#3758F9" fill-opacity="0.75"/>
<ellipse cx="30.6122" cy="10.623" rx="1.22449" ry="1.18033" fill="#3758F9" fill-opacity="0.75"/>
<ellipse cx="30.6122" cy="20.0656" rx="1.22449" ry="1.18033" fill="#3758F9" fill-opacity="0.75"/>
<ellipse cx="30.6122" cy="29.5082" rx="1.22449" ry="1.18033" fill="#3758F9" fill-opacity="0.75"/>
<ellipse cx="30.6122" cy="38.9508" rx="1.22449" ry="1.18031" fill="#3758F9" fill-opacity="0.75"/>
<ellipse cx="30.6122" cy="48.3934" rx="1.22449" ry="1.18034" fill="#3758F9" fill-opacity="0.75"/>
<ellipse cx="30.6122" cy="57.8361" rx="1.22449" ry="1.18033" fill="#3758F9" fill-opacity="0.75"/>
<ellipse cx="30.6122" cy="86.164" rx="1.22449" ry="1.18031" fill="#3758F9" fill-opacity="0.75"/>
<ellipse cx="30.6122" cy="67.2787" rx="1.22449" ry="1.18033" fill="#3758F9" fill-opacity="0.75"/>
<ellipse cx="30.6122" cy="95.6066" rx="1.22449" ry="1.18035" fill="#3758F9" fill-opacity="0.75"/>
<ellipse cx="30.6122" cy="105.049" rx="1.22449" ry="1.18033" fill="#3758F9" fill-opacity="0.75"/>
<ellipse cx="30.6122" cy="76.7213" rx="1.22449" ry="1.18033" fill="#3758F9" fill-opacity="0.75"/>
<ellipse cx="30.6122" cy="114.492" rx="1.22449" ry="1.18031" fill="#3758F9" fill-opacity="0.75"/>
<ellipse cx="30.6122" cy="123.934" rx="1.22449" ry="1.18031" fill="#3758F9" fill-opacity="0.75"/>
<ellipse cx="30.6122" cy="133.377" rx="1.22449" ry="1.18032" fill="#3758F9" fill-opacity="0.75"/>
<ellipse cx="30.6122" cy="142.82" rx="1.22449" ry="1.18032" fill="#3758F9" fill-opacity="0.75"/>
<ellipse cx="11.0204" cy="1.18033" rx="1.22449" ry="1.18033" fill="#3758F9" fill-opacity="0.75"/>
<ellipse cx="11.0204" cy="10.623" rx="1.22449" ry="1.18033" fill="#3758F9" fill-opacity="0.75"/>
<ellipse cx="11.0204" cy="20.0656" rx="1.22449" ry="1.18033" fill="#3758F9" fill-opacity="0.75"/>
<ellipse cx="11.0204" cy="29.5082" rx="1.22449" ry="1.18033" fill="#3758F9" fill-opacity="0.75"/>
<ellipse cx="11.0204" cy="38.9508" rx="1.22449" ry="1.18031" fill="#3758F9" fill-opacity="0.75"/>
<ellipse cx="11.0204" cy="48.3934" rx="1.22449" ry="1.18034" fill="#3758F9" fill-opacity="0.75"/>
<ellipse cx="11.0204" cy="57.8361" rx="1.22449" ry="1.18033" fill="#3758F9" fill-opacity="0.75"/>
<ellipse cx="11.0204" cy="86.164" rx="1.22449" ry="1.18031" fill="#3758F9" fill-opacity="0.75"/>
<ellipse cx="11.0204" cy="67.2787" rx="1.22449" ry="1.18033" fill="#3758F9" fill-opacity="0.75"/>
<ellipse cx="11.0204" cy="95.6066" rx="1.22449" ry="1.18035" fill="#3758F9" fill-opacity="0.75"/>
<ellipse cx="11.0204" cy="105.049" rx="1.22449" ry="1.18033" fill="#3758F9" fill-opacity="0.75"/>
<ellipse cx="11.0204" cy="76.7213" rx="1.22449" ry="1.18033" fill="#3758F9" fill-opacity="0.75"/>
<ellipse cx="11.0204" cy="114.492" rx="1.22449" ry="1.18031" fill="#3758F9" fill-opacity="0.75"/>
<ellipse cx="11.0204" cy="123.934" rx="1.22449" ry="1.18031" fill="#3758F9" fill-opacity="0.75"/>
<ellipse cx="40.4081" cy="1.18033" rx="1.22449" ry="1.18033" fill="#3758F9" fill-opacity="0.75"/>
<ellipse cx="40.4081" cy="10.623" rx="1.22449" ry="1.18033" fill="#3758F9" fill-opacity="0.75"/>
<ellipse cx="40.4081" cy="20.0656" rx="1.22449" ry="1.18033" fill="#3758F9" fill-opacity="0.75"/>
<ellipse cx="40.4081" cy="29.5082" rx="1.22449" ry="1.18033" fill="#3758F9" fill-opacity="0.75"/>
<ellipse cx="40.4081" cy="38.9508" rx="1.22449" ry="1.18031" fill="#3758F9" fill-opacity="0.75"/>
<ellipse cx="40.4081" cy="48.3934" rx="1.22449" ry="1.18034" fill="#3758F9" fill-opacity="0.75"/>
<ellipse cx="40.4081" cy="57.8361" rx="1.22449" ry="1.18033" fill="#3758F9" fill-opacity="0.75"/>
<ellipse cx="40.4081" cy="86.164" rx="1.22449" ry="1.18031" fill="#3758F9" fill-opacity="0.75"/>
<ellipse cx="40.4081" cy="67.2787" rx="1.22449" ry="1.18033" fill="#3758F9" fill-opacity="0.75"/>
<ellipse cx="40.4081" cy="95.6066" rx="1.22449" ry="1.18035" fill="#3758F9" fill-opacity="0.75"/>
<ellipse cx="40.4081" cy="105.049" rx="1.22449" ry="1.18033" fill="#3758F9" fill-opacity="0.75"/>
<ellipse cx="40.4081" cy="76.7213" rx="1.22449" ry="1.18033" fill="#3758F9" fill-opacity="0.75"/>
<ellipse cx="40.4081" cy="114.492" rx="1.22449" ry="1.18031" fill="#3758F9" fill-opacity="0.75"/>
<ellipse cx="40.4081" cy="123.934" rx="1.22449" ry="1.18031" fill="#3758F9" fill-opacity="0.75"/>
<ellipse cx="40.4081" cy="133.377" rx="1.22449" ry="1.18032" fill="#3758F9" fill-opacity="0.75"/>
<ellipse cx="40.4081" cy="142.82" rx="1.22449" ry="1.18032" fill="#3758F9" fill-opacity="0.75"/>
<ellipse cx="20.8163" cy="1.18033" rx="1.22449" ry="1.18033" fill="#3758F9" fill-opacity="0.75"/>
<ellipse cx="20.8163" cy="10.623" rx="1.22449" ry="1.18033" fill="#3758F9" fill-opacity="0.75"/>
<ellipse cx="20.8163" cy="20.0656" rx="1.22449" ry="1.18033" fill="#3758F9" fill-opacity="0.75"/>
<ellipse cx="20.8163" cy="29.5082" rx="1.22449" ry="1.18033" fill="#3758F9" fill-opacity="0.75"/>
<ellipse cx="20.8163" cy="38.9508" rx="1.22449" ry="1.18031" fill="#3758F9" fill-opacity="0.75"/>
<ellipse cx="20.8163" cy="48.3934" rx="1.22449" ry="1.18034" fill="#3758F9" fill-opacity="0.75"/>
<ellipse cx="20.8163" cy="57.8361" rx="1.22449" ry="1.18033" fill="#3758F9" fill-opacity="0.75"/>
<ellipse cx="20.8163" cy="86.164" rx="1.22449" ry="1.18031" fill="#3758F9" fill-opacity="0.75"/>
<ellipse cx="20.8163" cy="67.2787" rx="1.22449" ry="1.18033" fill="#3758F9" fill-opacity="0.75"/>
<ellipse cx="20.8163" cy="95.6066" rx="1.22449" ry="1.18035" fill="#3758F9" fill-opacity="0.75"/>
<ellipse cx="20.8163" cy="105.049" rx="1.22449" ry="1.18033" fill="#3758F9" fill-opacity="0.75"/>
<ellipse cx="20.8163" cy="76.7213" rx="1.22449" ry="1.18033" fill="#3758F9" fill-opacity="0.75"/>
<ellipse cx="20.8163" cy="114.492" rx="1.22449" ry="1.18031" fill="#3758F9" fill-opacity="0.75"/>
<ellipse cx="20.8163" cy="123.934" rx="1.22449" ry="1.18031" fill="#3758F9" fill-opacity="0.75"/>
<ellipse cx="20.8163" cy="133.377" rx="1.22449" ry="1.18032" fill="#3758F9" fill-opacity="0.75"/>
<ellipse cx="50.2041" cy="1.18033" rx="1.22448" ry="1.18033" fill="#3758F9" fill-opacity="0.75"/>
<ellipse cx="50.2041" cy="10.623" rx="1.22448" ry="1.18033" fill="#3758F9" fill-opacity="0.75"/>
<ellipse cx="50.2041" cy="20.0656" rx="1.22448" ry="1.18033" fill="#3758F9" fill-opacity="0.75"/>
<ellipse cx="50.2041" cy="29.5082" rx="1.22448" ry="1.18033" fill="#3758F9" fill-opacity="0.75"/>
<ellipse cx="50.2041" cy="38.9508" rx="1.22448" ry="1.18031" fill="#3758F9" fill-opacity="0.75"/>
<ellipse cx="50.2041" cy="48.3934" rx="1.22448" ry="1.18034" fill="#3758F9" fill-opacity="0.75"/>
<ellipse cx="50.2041" cy="57.8361" rx="1.22448" ry="1.18033" fill="#3758F9" fill-opacity="0.75"/>
<ellipse cx="50.2041" cy="86.164" rx="1.22448" ry="1.18031" fill="#3758F9" fill-opacity="0.75"/>
<ellipse cx="50.2041" cy="67.2787" rx="1.22448" ry="1.18033" fill="#3758F9" fill-opacity="0.75"/>
<ellipse cx="50.2041" cy="95.6066" rx="1.22448" ry="1.18035" fill="#3758F9" fill-opacity="0.75"/>
<ellipse cx="50.2041" cy="105.049" rx="1.22448" ry="1.18033" fill="#3758F9" fill-opacity="0.75"/>
<ellipse cx="50.2041" cy="76.7213" rx="1.22448" ry="1.18033" fill="#3758F9" fill-opacity="0.75"/>
<ellipse cx="50.2041" cy="114.492" rx="1.22448" ry="1.18031" fill="#3758F9" fill-opacity="0.75"/>
<ellipse cx="50.2041" cy="123.934" rx="1.22448" ry="1.18031" fill="#3758F9" fill-opacity="0.75"/>
<ellipse cx="50.2041" cy="133.377" rx="1.22448" ry="1.18032" fill="#3758F9" fill-opacity="0.75"/>
<ellipse cx="50.2041" cy="142.82" rx="1.22448" ry="1.18032" fill="#3758F9" fill-opacity="0.75"/>
<ellipse cx="60" cy="1.18033" rx="1.22449" ry="1.18033" fill="#3758F9" fill-opacity="0.75"/>
<ellipse cx="69.7959" cy="1.18033" rx="1.22449" ry="1.18033" fill="#3758F9" fill-opacity="0.75"/>
<ellipse cx="79.5918" cy="1.18033" rx="1.22449" ry="1.18033" fill="#3758F9" fill-opacity="0.75"/>
<ellipse cx="89.3878" cy="1.18033" rx="1.22449" ry="1.18033" fill="#3758F9" fill-opacity="0.75"/>
<ellipse cx="60" cy="10.623" rx="1.22449" ry="1.18033" fill="#3758F9" fill-opacity="0.75"/>
<ellipse cx="69.7959" cy="10.623" rx="1.22449" ry="1.18033" fill="#3758F9" fill-opacity="0.75"/>
<ellipse cx="79.5918" cy="10.623" rx="1.22449" ry="1.18033" fill="#3758F9" fill-opacity="0.75"/>
<ellipse cx="89.3878" cy="10.623" rx="1.22449" ry="1.18033" fill="#3758F9" fill-opacity="0.75"/>
<ellipse cx="99.1837" cy="10.623" rx="1.22447" ry="1.18033" fill="#3758F9" fill-opacity="0.75"/>
<ellipse cx="60" cy="20.0656" rx="1.22449" ry="1.18033" fill="#3758F9" fill-opacity="0.75"/>
<ellipse cx="69.7959" cy="20.0656" rx="1.22449" ry="1.18033" fill="#3758F9" fill-opacity="0.75"/>
<ellipse cx="79.5918" cy="20.0656" rx="1.22449" ry="1.18033" fill="#3758F9" fill-opacity="0.75"/>
<ellipse cx="89.3878" cy="20.0656" rx="1.22449" ry="1.18033" fill="#3758F9" fill-opacity="0.75"/>
<ellipse cx="99.1837" cy="20.0656" rx="1.22447" ry="1.18033" fill="#3758F9" fill-opacity="0.75"/>
<ellipse cx="108.98" cy="20.0656" rx="1.22448" ry="1.18033" fill="#3758F9" fill-opacity="0.75"/>
<ellipse cx="60" cy="29.5082" rx="1.22449" ry="1.18033" fill="#3758F9" fill-opacity="0.75"/>
<ellipse cx="69.7959" cy="29.5082" rx="1.22449" ry="1.18033" fill="#3758F9" fill-opacity="0.75"/>
<ellipse cx="79.5918" cy="29.5082" rx="1.22449" ry="1.18033" fill="#3758F9" fill-opacity="0.75"/>
<ellipse cx="89.3878" cy="29.5082" rx="1.22449" ry="1.18033" fill="#3758F9" fill-opacity="0.75"/>
<ellipse cx="99.1837" cy="29.5082" rx="1.22447" ry="1.18033" fill="#3758F9" fill-opacity="0.75"/>
<ellipse cx="108.98" cy="29.5082" rx="1.22448" ry="1.18033" fill="#3758F9" fill-opacity="0.75"/>
<ellipse cx="118.776" cy="29.5082" rx="1.22449" ry="1.18033" fill="#3758F9" fill-opacity="0.75"/>
<ellipse cx="60" cy="38.9508" rx="1.22449" ry="1.18031" fill="#3758F9" fill-opacity="0.75"/>
<ellipse cx="69.7959" cy="38.9508" rx="1.22449" ry="1.18031" fill="#3758F9" fill-opacity="0.75"/>
<ellipse cx="79.5918" cy="38.9508" rx="1.22449" ry="1.18031" fill="#3758F9" fill-opacity="0.75"/>
<ellipse cx="89.3878" cy="38.9508" rx="1.22449" ry="1.18031" fill="#3758F9" fill-opacity="0.75"/>
<ellipse cx="99.1837" cy="38.9508" rx="1.22447" ry="1.18031" fill="#3758F9" fill-opacity="0.75"/>
<ellipse cx="108.98" cy="38.9508" rx="1.22448" ry="1.18031" fill="#3758F9" fill-opacity="0.75"/>
<ellipse cx="118.776" cy="38.9508" rx="1.22449" ry="1.18031" fill="#3758F9" fill-opacity="0.75"/>
<ellipse cx="60" cy="48.3934" rx="1.22449" ry="1.18034" fill="#3758F9" fill-opacity="0.75"/>
<ellipse cx="69.7959" cy="48.3934" rx="1.22449" ry="1.18034" fill="#3758F9" fill-opacity="0.75"/>
<ellipse cx="79.5918" cy="48.3934" rx="1.22449" ry="1.18034" fill="#3758F9" fill-opacity="0.75"/>
<ellipse cx="89.3878" cy="48.3934" rx="1.22449" ry="1.18034" fill="#3758F9" fill-opacity="0.75"/>
<ellipse cx="99.1837" cy="48.3934" rx="1.22447" ry="1.18034" fill="#3758F9" fill-opacity="0.75"/>
<ellipse cx="108.98" cy="48.3934" rx="1.22448" ry="1.18034" fill="#3758F9" fill-opacity="0.75"/>
<ellipse cx="118.776" cy="48.3934" rx="1.22449" ry="1.18034" fill="#3758F9" fill-opacity="0.75"/>
<ellipse cx="60" cy="57.8361" rx="1.22449" ry="1.18033" fill="#3758F9" fill-opacity="0.75"/>
<ellipse cx="69.7959" cy="57.8361" rx="1.22449" ry="1.18033" fill="#3758F9" fill-opacity="0.75"/>
<ellipse cx="79.5918" cy="57.8361" rx="1.22449" ry="1.18033" fill="#3758F9" fill-opacity="0.75"/>
<ellipse cx="89.3878" cy="57.8361" rx="1.22449" ry="1.18033" fill="#3758F9" fill-opacity="0.75"/>
<ellipse cx="99.1837" cy="57.8361" rx="1.22447" ry="1.18033" fill="#3758F9" fill-opacity="0.75"/>
<ellipse cx="108.98" cy="57.8361" rx="1.22448" ry="1.18033" fill="#3758F9" fill-opacity="0.75"/>
<ellipse cx="118.776" cy="57.8361" rx="1.22449" ry="1.18033" fill="#3758F9" fill-opacity="0.75"/>
<ellipse cx="60" cy="86.164" rx="1.22449" ry="1.18031" fill="#3758F9" fill-opacity="0.75"/>
<ellipse cx="60" cy="67.2787" rx="1.22449" ry="1.18033" fill="#3758F9" fill-opacity="0.75"/>
<ellipse cx="60" cy="95.6066" rx="1.22449" ry="1.18035" fill="#3758F9" fill-opacity="0.75"/>
<ellipse cx="60" cy="105.049" rx="1.22449" ry="1.18033" fill="#3758F9" fill-opacity="0.75"/>
<ellipse cx="60" cy="76.7213" rx="1.22449" ry="1.18033" fill="#3758F9" fill-opacity="0.75"/>
<ellipse cx="60" cy="114.492" rx="1.22449" ry="1.18031" fill="#3758F9" fill-opacity="0.75"/>
<ellipse cx="60" cy="123.934" rx="1.22449" ry="1.18031" fill="#3758F9" fill-opacity="0.75"/>
<ellipse cx="60" cy="133.377" rx="1.22449" ry="1.18032" fill="#3758F9" fill-opacity="0.75"/>
<ellipse cx="60" cy="142.82" rx="1.22449" ry="1.18032" fill="#3758F9" fill-opacity="0.75"/>
<ellipse cx="69.7959" cy="86.164" rx="1.22449" ry="1.18031" fill="#3758F9" fill-opacity="0.75"/>
<ellipse cx="69.7959" cy="67.2787" rx="1.22449" ry="1.18033" fill="#3758F9" fill-opacity="0.75"/>
<ellipse cx="69.7959" cy="95.6066" rx="1.22449" ry="1.18035" fill="#3758F9" fill-opacity="0.75"/>
<ellipse cx="69.7959" cy="105.049" rx="1.22449" ry="1.18033" fill="#3758F9" fill-opacity="0.75"/>
<ellipse cx="69.7959" cy="76.7213" rx="1.22449" ry="1.18033" fill="#3758F9" fill-opacity="0.75"/>
<ellipse cx="69.7959" cy="114.492" rx="1.22449" ry="1.18031" fill="#3758F9" fill-opacity="0.75"/>
<ellipse cx="69.7959" cy="123.934" rx="1.22449" ry="1.18031" fill="#3758F9" fill-opacity="0.75"/>
<ellipse cx="69.7959" cy="133.377" rx="1.22449" ry="1.18032" fill="#3758F9" fill-opacity="0.75"/>
<ellipse cx="69.7959" cy="142.82" rx="1.22449" ry="1.18032" fill="#3758F9" fill-opacity="0.75"/>
<ellipse cx="79.5918" cy="86.164" rx="1.22449" ry="1.18031" fill="#3758F9" fill-opacity="0.75"/>
<ellipse cx="79.5918" cy="67.2787" rx="1.22449" ry="1.18033" fill="#3758F9" fill-opacity="0.75"/>
<ellipse cx="79.5918" cy="95.6066" rx="1.22449" ry="1.18035" fill="#3758F9" fill-opacity="0.75"/>
<ellipse cx="79.5918" cy="105.049" rx="1.22449" ry="1.18033" fill="#3758F9" fill-opacity="0.75"/>
<ellipse cx="79.5918" cy="76.7213" rx="1.22449" ry="1.18033" fill="#3758F9" fill-opacity="0.75"/>
<ellipse cx="79.5918" cy="114.492" rx="1.22449" ry="1.18031" fill="#3758F9" fill-opacity="0.75"/>
<ellipse cx="79.5918" cy="123.934" rx="1.22449" ry="1.18031" fill="#3758F9" fill-opacity="0.75"/>
<ellipse cx="79.5918" cy="133.377" rx="1.22449" ry="1.18032" fill="#3758F9" fill-opacity="0.75"/>
<ellipse cx="79.5918" cy="142.82" rx="1.22449" ry="1.18032" fill="#3758F9" fill-opacity="0.75"/>
<ellipse cx="89.3878" cy="86.164" rx="1.22449" ry="1.18031" fill="#3758F9" fill-opacity="0.75"/>
<ellipse cx="89.3878" cy="67.2787" rx="1.22449" ry="1.18033" fill="#3758F9" fill-opacity="0.75"/>
<ellipse cx="89.3878" cy="95.6066" rx="1.22449" ry="1.18035" fill="#3758F9" fill-opacity="0.75"/>
<ellipse cx="89.3878" cy="105.049" rx="1.22449" ry="1.18033" fill="#3758F9" fill-opacity="0.75"/>
<ellipse cx="89.3878" cy="76.7213" rx="1.22449" ry="1.18033" fill="#3758F9" fill-opacity="0.75"/>
<ellipse cx="89.3878" cy="114.492" rx="1.22449" ry="1.18031" fill="#3758F9" fill-opacity="0.75"/>
<ellipse cx="89.3878" cy="123.934" rx="1.22449" ry="1.18031" fill="#3758F9" fill-opacity="0.75"/>
<ellipse cx="89.3878" cy="133.377" rx="1.22449" ry="1.18032" fill="#3758F9" fill-opacity="0.75"/>
<ellipse cx="89.3878" cy="142.82" rx="1.22449" ry="1.18032" fill="#3758F9" fill-opacity="0.75"/>
<ellipse cx="99.1837" cy="86.164" rx="1.22447" ry="1.18031" fill="#3758F9" fill-opacity="0.75"/>
<ellipse cx="99.1837" cy="67.2787" rx="1.22447" ry="1.18033" fill="#3758F9" fill-opacity="0.75"/>
<ellipse cx="99.1837" cy="95.6066" rx="1.22447" ry="1.18035" fill="#3758F9" fill-opacity="0.75"/>
<ellipse cx="99.1837" cy="105.049" rx="1.22447" ry="1.18033" fill="#3758F9" fill-opacity="0.75"/>
<ellipse cx="99.1837" cy="76.7213" rx="1.22447" ry="1.18033" fill="#3758F9" fill-opacity="0.75"/>
<ellipse cx="99.1837" cy="114.492" rx="1.22447" ry="1.18031" fill="#3758F9" fill-opacity="0.75"/>
<ellipse cx="99.1837" cy="123.934" rx="1.22447" ry="1.18031" fill="#3758F9" fill-opacity="0.75"/>
<ellipse cx="99.1837" cy="133.377" rx="1.22447" ry="1.18032" fill="#3758F9" fill-opacity="0.75"/>
<ellipse cx="99.1837" cy="142.82" rx="1.22447" ry="1.18032" fill="#3758F9" fill-opacity="0.75"/>
<ellipse cx="108.98" cy="86.164" rx="1.22448" ry="1.18031" fill="#3758F9" fill-opacity="0.75"/>
<ellipse cx="108.98" cy="67.2787" rx="1.22448" ry="1.18033" fill="#3758F9" fill-opacity="0.75"/>
<ellipse cx="108.98" cy="95.6066" rx="1.22448" ry="1.18035" fill="#3758F9" fill-opacity="0.75"/>
<ellipse cx="108.98" cy="105.049" rx="1.22448" ry="1.18033" fill="#3758F9" fill-opacity="0.75"/>
<ellipse cx="108.98" cy="76.7213" rx="1.22448" ry="1.18033" fill="#3758F9" fill-opacity="0.75"/>
<ellipse cx="108.98" cy="114.492" rx="1.22448" ry="1.18031" fill="#3758F9" fill-opacity="0.75"/>
<ellipse cx="108.98" cy="123.934" rx="1.22448" ry="1.18031" fill="#3758F9" fill-opacity="0.75"/>
<ellipse cx="108.98" cy="133.377" rx="1.22448" ry="1.18032" fill="#3758F9" fill-opacity="0.75"/>
<ellipse cx="108.98" cy="142.82" rx="1.22448" ry="1.18032" fill="#3758F9" fill-opacity="0.75"/>
<ellipse cx="118.776" cy="86.164" rx="1.22449" ry="1.18031" fill="#3758F9" fill-opacity="0.75"/>
<ellipse cx="118.776" cy="67.2787" rx="1.22449" ry="1.18033" fill="#3758F9" fill-opacity="0.75"/>
<ellipse cx="118.776" cy="95.6066" rx="1.22449" ry="1.18035" fill="#3758F9" fill-opacity="0.75"/>
<ellipse cx="118.776" cy="105.049" rx="1.22449" ry="1.18033" fill="#3758F9" fill-opacity="0.75"/>
<ellipse cx="118.776" cy="76.7213" rx="1.22449" ry="1.18033" fill="#3758F9" fill-opacity="0.75"/>
<ellipse cx="118.776" cy="114.492" rx="1.22449" ry="1.18031" fill="#3758F9" fill-opacity="0.75"/>
<ellipse cx="118.776" cy="123.934" rx="1.22449" ry="1.18031" fill="#3758F9" fill-opacity="0.75"/>
<ellipse cx="118.776" cy="133.377" rx="1.22449" ry="1.18032" fill="#3758F9" fill-opacity="0.75"/>
</svg>
