<svg width="836" height="696" viewBox="0 0 836 696" fill="none" xmlns="http://www.w3.org/2000/svg">
<ellipse cx="418" cy="510" rx="418" ry="186" fill="#FFD338"/>
<path d="M92.3491 194.745L414.004 9.30361C416.477 7.87786 419.523 7.87785 421.996 9.3036L743.651 194.745C749.618 198.185 748.738 207.055 742.212 209.256L420.557 317.74C418.898 318.299 417.102 318.299 415.443 317.74L93.7881 209.256C87.2621 207.055 86.3824 198.185 92.3491 194.745Z" fill="#3758F9" stroke="#05114B" stroke-width="16"/>
<rect x="140.2" y="135.199" width="555.601" height="276.543" fill="white"/>
<path d="M140.2 72.5615C140.2 63.725 147.363 56.5615 156.2 56.5615H679.8C688.637 56.5615 695.8 63.725 695.8 72.5615V101.123H140.2V72.5615Z" fill="#073E55"/>
<ellipse cx="171.105" cy="78.8424" rx="10.0703" ry="9.82971" fill="#EF4544"/>
<ellipse cx="200.621" cy="78.8424" rx="10.4175" ry="9.82971" fill="#FBBF23"/>
<ellipse cx="230.485" cy="78.8424" rx="10.4175" ry="9.82971" fill="#4ADE80"/>
<rect x="140.2" y="100.468" width="555.601" height="34.7316" fill="#FFD338"/>
<rect x="161.035" y="108.987" width="29.169" height="17.0382" rx="8" fill="#042A3A" fill-opacity="0.3"/>
<rect x="345.078" y="108.987" width="145.151" height="17.0382" rx="8" fill="#042A3A" fill-opacity="0.3"/>
<path d="M140.2 157.48L695.799 158.61" stroke="#CCD1DD"/>
<path d="M140.2 180.891L695.799 182.02" stroke="#CCD1DD"/>
<path d="M140.2 204.301L695.799 205.431" stroke="#CCD1DD"/>
<path d="M140.2 227.711L695.799 228.841" stroke="#CCD1DD"/>
<path d="M140.2 251.122L695.799 252.252" stroke="#CCD1DD"/>
<path d="M140.2 274.533L695.799 275.663" stroke="#CCD1DD"/>
<path d="M140.2 297.943L695.799 299.073" stroke="#CCD1DD"/>
<path d="M140.2 321.354L695.799 322.483" stroke="#CCD1DD"/>
<path d="M140.2 344.764L695.799 345.894" stroke="#CCD1DD"/>
<path d="M140.2 368.175L695.799 369.305" stroke="#CCD1DD"/>
<path d="M140.2 391.585L695.799 392.715" stroke="#CCD1DD"/>
<path d="M77 557V215.732C77 209.903 83.0332 206.031 88.3322 208.459L414.668 357.973C416.783 358.943 419.216 358.943 421.332 357.973L747.668 208.459C752.967 206.031 759 209.903 759 215.732V557C759 561.418 755.418 565 751 565H85C80.5817 565 77 561.418 77 557Z" fill="#F0F6FF" stroke="#05114B" stroke-width="16"/>
</svg>
